<svg id="Layer_6" data-name="Layer 6" xmlns="http://www.w3.org/2000/svg" viewBox="0 0 128 128"><title>32Artboard 1</title><path d="M99.63,20.87V8.18H87.08V20.87H40.78V8.18H28.23V20.87h-25v99H124.73v-99Zm-86.55,11H114.63V111H13.08ZM99.48,56.35h-12v-12h12Zm-19.91,0h-12v-12h12ZM99.48,75.68h-12v-12h12Zm-19.91,0h-12v-12h12Zm-19.91,0h-12v-12h12Zm-19.91,0h-12v-12h12ZM99.48,96.17h-12v-12h12Zm-19.91,0h-12v-12h12Zm-19.91,0h-12v-12h12Zm-19.91,0h-12v-12h12ZM59.67,56.35h-12v-12h12Z"/><path d="M128,123.1H0V17.6H25V4.9H44V17.6H83.81V4.9H102.9V17.6H128ZM6.54,116.55H121.46V24.14H96.36V11.45h-6V24.14H37.5V11.45h-6V24.14h-25ZM117.9,114.3H9.81V28.56H117.9ZM16.35,107.75h95V35.1h-95Zm86.41-8.31H84.24V80.92h18.52Zm-12-6.54h5.43V87.47H90.78Zm-7.93,6.54H64.33V80.92H82.85Zm-12-6.54h5.43V87.47H70.88Zm-7.93,6.54H44.43V80.92H62.94ZM51,92.9H56.4V87.47H51ZM43,99.44H24.52V80.92H43Zm-12-6.54h5.43V87.47H31.06ZM102.76,79H84.24V60.44h18.52Zm-12-6.54h5.43V67H90.78ZM82.85,79H64.33V60.44H82.85Zm-12-6.54h5.43V67H70.88ZM62.94,79H44.43V60.44H62.94ZM51,72.41H56.4V67H51ZM43,79H24.52V60.44H43Zm-12-6.54h5.43V67H31.06Zm71.69-12.79H84.24V41.11h18.52Zm-12-6.54h5.43V47.65H90.78Zm-7.93,6.54H64.33V41.11H82.85Zm-12-6.54h5.43V47.65H70.88Zm-7.93,6.54H44.43V41.11H62.94ZM51,53.08H56.4V47.65H51Z"/></svg>