<svg id="Layer_35" data-name="Layer 35" xmlns="http://www.w3.org/2000/svg" viewBox="0 0 128 128"><title>2Artboard 1</title><path d="M62.32,16.79h2.77v2.77H62.32ZM64.89,15h-2L62.32,0h3Z"/><path d="M47.9,20.35l2.57-1,1,2.57-2.57,1ZM49.48,18l-1.78.79L41.58,5.14,44.35,4Z"/><path d="M35.46,29l2-2,1.78,2-2,2Zm.59-3-1.38,1.38L24,17l2.17-2.17Z"/><path d="M78.91,22.91l-2.57-1,1-2.57,2.57,1ZM83.46,3.75l2.77,1.19L80.1,18.57l-1.78-.79Z"/><path d="M90.77,31.8l-2-2,1.78-2,2,2Zm11.06-16L104,18,93.33,28.25,92,26.86Z"/><rect x="58.17" y="123.06" width="12.05" height="4.94"/><polygon points="53.63 97.38 53.63 102.52 73.78 97.78 73.78 92.64 53.63 97.38"/><polygon points="53.63 106.86 53.63 112 73.78 107.26 73.78 102.12 53.63 106.86"/><polygon points="53.63 116.35 53.63 121.48 73.78 116.94 73.78 111.8 53.63 116.35"/><path d="M74,89.48V77.23l.59-.2A24.56,24.56,0,0,0,88.4,55.11,24.3,24.3,0,1,0,53.63,77l.59.2V89.48H47.11v-8.1a31.31,31.31,0,1,1,33.78,0v8.1Z"/><polygon points="66.47 89.48 66.47 76.64 72.99 57.68 54.81 57.68 61.53 76.64 61.53 89.48 57.78 89.48 57.78 77.23 49.68 54.12 78.12 54.12 70.03 77.23 70.03 89.48 66.47 89.48"/></svg>