<svg id="Layer_37" data-name="Layer 37" xmlns="http://www.w3.org/2000/svg" viewBox="0 0 128 128"><title>24Artboard 1</title><path d="M64,.09a63.91,63.91,0,1,0,64,63.81C128,28.64,99.08.09,64,.09m0,111.58c-1.49-2.24-3.36-5-5.22-8.4a73.54,73.54,0,0,1-6.53-16.42H75.76a77.26,77.26,0,0,1-6.53,16.42c-1.87,3.36-3.73,6.16-5.22,8.4M49.63,74.17a92,92,0,0,1-.56-10.26,60.36,60.36,0,0,1,.75-10.26H78.18a91.55,91.55,0,0,1,.75,10.26,92,92,0,0,1-.56,10.26ZM12.69,63.91a46.75,46.75,0,0,1,1.12-10.26H37.13a94.35,94.35,0,0,0,0,20.52H13.62a61.73,61.73,0,0,1-.93-10.26M52.43,41A88.11,88.11,0,0,1,64,16.51,85.53,85.53,0,0,1,75.57,41ZM90.87,53.64h23.32a47.6,47.6,0,0,1,0,20.52H90.87a92,92,0,0,0,.56-10.26,92,92,0,0,0-.56-10.26M109.71,41H88.63a102.3,102.3,0,0,0-10.82-26.5A52.55,52.55,0,0,1,109.71,41M50.19,14.65a93.77,93.77,0,0,0-10.82,26.5H18.1a51.23,51.23,0,0,1,32.09-26.5M18.1,86.86H39.18a90.34,90.34,0,0,0,10.64,26.31A50.84,50.84,0,0,1,18.1,86.86M78,113.17A92.59,92.59,0,0,0,88.63,86.86h21.08A50.84,50.84,0,0,1,78,113.17"/></svg>