<svg id="Layer_13" data-name="Layer 13" xmlns="http://www.w3.org/2000/svg" viewBox="0 0 128 128"><title>25Artboard 1</title><path d="M70.87,96.36c0,4.34-3.62,7.59-8.32,7.59a7.7,7.7,0,1,1,0-15.37c4.7,0,8.32,3.44,8.32,7.77M62.73,25.85a50,50,0,0,0-13,1.81l-.36.18V40.14l.72-.18A35.64,35.64,0,0,1,61.65,37.6c4.7,0,12.47,1.63,12.47,7.41,0,3.8-2.89,6.15-6.33,9.4-5.06,4.52-11.57,9.94-11.57,22.06v5.79H69.6v-4c0-8.68,4.34-12.66,9-17,4.52-4.16,9.22-8.5,9.22-17.54-.18-12.47-12.66-17.9-25.13-17.9M128,64A64,64,0,1,1,64,0a64.12,64.12,0,0,1,64,64m-13,0a50.8,50.8,0,1,0-50.8,50.8A50.85,50.85,0,0,0,115,64"/></svg>