<svg id="Layer_11" data-name="Layer 11" xmlns="http://www.w3.org/2000/svg" viewBox="0 0 128 128"><title>27Artboard 1</title><path d="M128,58.84,85.69,48.53a46.17,46.17,0,0,0,4.8-10.67,35.31,35.31,0,0,0,1.07-7.29,27.56,27.56,0,0,0-55.11,0,25.68,25.68,0,0,0,1.07,7.29,50.78,50.78,0,0,0,4.8,10.67L0,58.84l3.91,9.6h0v42.31L64.18,125l60.27-14.22V68.44h0ZM64,14.76A15.67,15.67,0,0,1,79.64,30.4a23.22,23.22,0,0,1-.53,4.09C77,41.6,69.51,51.91,63.82,58.67,58.31,51.91,50.67,41.6,48.53,34.49A18.45,18.45,0,0,1,48,30.4,16.09,16.09,0,0,1,64,14.76m-6.93,96.53-39.82-9.42V82.49l39.82,9.42Zm53.51-9.42-39.82,9.42V91.91l39.82-9.42ZM64,81.24,9.24,68.44,49.07,59A139.88,139.88,0,0,0,59.38,71.64l4.44,4.8,4.44-4.8c.89-1.07,5.51-6.22,10.31-12.8l40,9.6ZM57.07,30A6.93,6.93,0,1,1,64,37,6.94,6.94,0,0,1,57.07,30"/></svg>