<svg id="Layer_22" data-name="Layer 22" xmlns="http://www.w3.org/2000/svg" viewBox="0 0 128 128"><title>15Artboard 1</title><g id="Speech_Dialler" data-name="Speech Dialler"><path d="M23.27,10.66c-9,7-23.27,16.44,13,70.58,38.47,57.55,52.89,48.4,62.2,42L77.56,91.63c-8.53,5.58-11.48.93-18.15-9.15-4.19-6.36-10.08-14.58-15-22.8-3.57-5.89-7.76-10.86.93-16.75Z"/><path d="M113.39,113.5a4.26,4.26,0,0,0,1.09-5.89h0L97.88,83.1A4.23,4.23,0,0,0,92,82l-9,6,21.1,31.64,9.31-6.2Z"/><path d="M59.72,33.15a4.26,4.26,0,0,0,1.09-5.89h0L43.9,1.82A4.23,4.23,0,0,0,38,.73l-8.84,6L50.88,39.2l8.84-6Z"/></g></svg>