<svg id="Layer_1" data-name="Layer 1" xmlns="http://www.w3.org/2000/svg" viewBox="0 0 128 128"><title>37Artboard 1</title><path d="M127.23.91c3.35,3.85-5.36,13.9-5.36,13.9l-21.6,22.77,2.51,21.76,5.86-5.86L115,59.83l-10,10,1.84,15.9,7-7,6.53,6.53L109.49,96.16s2,21.76,2,24.27-6.19,7.37-9,7.37-16.24-67-23.77-67l-35.49,32s4.19,22.1,3.35,22.94L41,121.28c-1.17,1.17-7-18.92-8.37-20.42-1.17-1.17-4.85.17-6.19.84l-.33.33a.52.52,0,0,1,.17-.33.58.58,0,0,0-.33.17l.33-.33c.5-1.51,1.84-5.19.84-6.19C25.78,94,5.52,88.13,6.7,87l5.52-5.52c.84-.84,22.94,3.35,22.94,3.35L67,49.46C67,41.92,0,28.53,0,25.68s4.85-9,7.37-9,24.27,2,24.27,2L42.52,7.77l6.53,6.53-7,7,15.9,1.84,10-10,6.36,6.36-5.86,5.86,21.76,2.51,22.94-21.6S123-2.28,127.23.91h0c-.17-.17,0-.17,0,0h0"/></svg>