<svg id="Layer_25" data-name="Layer 25" xmlns="http://www.w3.org/2000/svg" viewBox="0 0 128 128"><defs><style>.cls-1{fill:#fff;}</style></defs><title>12Artboard 1</title><rect class="cls-1" y="14.4" width="128" height="99.2"/><path d="M55,77.6a13.73,13.73,0,0,1-1.76,6.88,12.16,12.16,0,0,1-5,4.48,15.26,15.26,0,0,1-6.56,1.6A14.22,14.22,0,0,1,33.92,88a20.1,20.1,0,0,1-6.72-7.68,26.22,26.22,0,0,1-2.72-12.16q0-12.48,7.68-21.12c5.12-5.76,12.32-9.28,21.6-10.4v7.52c-5.92,1.12-10.88,3.2-14.56,6.4a14.7,14.7,0,0,0-5.6,11.68c0,2.72,1,4,2.88,4a51.39,51.39,0,0,1,6.72-.8A10.29,10.29,0,0,1,48.8,67a12.89,12.89,0,0,1,4.48,4.32A11.42,11.42,0,0,1,55,77.6Zm46.08,0a13.73,13.73,0,0,1-1.76,6.88,12.16,12.16,0,0,1-5,4.48,15.26,15.26,0,0,1-6.56,1.6c-4.16,0-8-1.92-11.68-5.92-3.68-3.84-5.44-9.44-5.44-16.48q0-12.48,7.68-21.12c5.12-5.76,12.32-9.28,21.6-10.4v7.52c-5.92,1.12-10.88,3.2-14.56,6.4a14.7,14.7,0,0,0-5.6,11.68c0,2.72,1,4,2.88,4a2.37,2.37,0,0,0,1.12-.16c.32-.16,1.12-.16,2.24-.48a29.31,29.31,0,0,1,3.36-.32,11.51,11.51,0,0,1,8.32,3.52A12.07,12.07,0,0,1,101.12,77.6Z"/></svg>