<svg id="Layer_34" data-name="Layer 34" xmlns="http://www.w3.org/2000/svg" viewBox="0 0 128 128"><title>3Artboard 1</title><path d="M64,2.76a31.33,31.33,0,0,0,0,39,31.33,31.33,0,0,0,0-39Z"/><path d="M108,22.25A31.68,31.68,0,0,0,83.13,52.6a32.19,32.19,0,0,0,17.66-10.85A31.5,31.5,0,0,0,108,22.25Z"/><path d="M128,58.48a30.71,30.71,0,0,0-20.6,1.29A31.21,31.21,0,0,0,92,73.38a30.71,30.71,0,0,0,20.6-1.29A30.36,30.36,0,0,0,128,58.48Z"/><path d="M116,93.06a22.86,22.86,0,0,0-26.48-10.3A23.81,23.81,0,0,0,101,92.51,22.46,22.46,0,0,0,116,93.06Z"/><path d="M105.56,49.47A22.71,22.71,0,0,0,91.4,54.25a23.56,23.56,0,0,0-8.28,12.51A22.71,22.71,0,0,0,97.29,62,23.56,23.56,0,0,0,105.56,49.47Z"/><path d="M79.63,26.48A23.29,23.29,0,0,0,71.54,39a22.79,22.79,0,0,0,1.29,14.9,23.29,23.29,0,0,0,8.09-12.51A21.78,21.78,0,0,0,79.63,26.48Z"/><path d="M88.46,13.79a12,12,0,0,0-5.33,5.15,11.46,11.46,0,0,0-.92,7.36,12,12,0,0,0,5.33-5.15A11.46,11.46,0,0,0,88.46,13.79Z"/><path d="M119.54,40.83a11.39,11.39,0,0,0-7.17,1.84A10.76,10.76,0,0,0,108,48.55a11.39,11.39,0,0,0,7.17-1.84A10.76,10.76,0,0,0,119.54,40.83Z"/><path d="M20,22.25A32.19,32.19,0,0,1,37.7,33.1,32.21,32.21,0,0,1,44.87,52.6,32.19,32.19,0,0,1,27.22,41.75,32.63,32.63,0,0,1,20,22.25Z"/><path d="M0,58.48a30.71,30.71,0,0,1,20.6,1.29A31.21,31.21,0,0,1,36,73.38a30.71,30.71,0,0,1-20.6-1.29A31.11,31.11,0,0,1,0,58.48Z"/><path d="M12.14,93.06a23.81,23.81,0,0,1,11.4-9.75,23.61,23.61,0,0,1,15.08-.55,23.81,23.81,0,0,1-11.4,9.75A22.46,22.46,0,0,1,12.14,93.06Z"/><path d="M22.62,49.47a22.71,22.71,0,0,1,14.16,4.78,23.56,23.56,0,0,1,8.28,12.51A22.71,22.71,0,0,1,30.9,62,23.56,23.56,0,0,1,22.62,49.47Z"/><path d="M48.37,26.48A23.29,23.29,0,0,1,56.46,39a22.79,22.79,0,0,1-1.29,14.9,23.29,23.29,0,0,1-8.09-12.51A22.9,22.9,0,0,1,48.37,26.48Z"/><path d="M39.54,13.79a12,12,0,0,1,5.33,5.15,11.46,11.46,0,0,1,.92,7.36,12,12,0,0,1-5.33-5.15A12.82,12.82,0,0,1,39.54,13.79Z"/><path d="M8.64,40.83a11.39,11.39,0,0,1,7.17,1.84,10.76,10.76,0,0,1,4.41,5.89,11.39,11.39,0,0,1-7.17-1.84A10.76,10.76,0,0,1,8.64,40.83Z"/><path d="M49.1,60.51a11.06,11.06,0,0,1,5.52,5,11.5,11.5,0,0,1,1.29,7.36,11.06,11.06,0,0,1-5.52-5A11.7,11.7,0,0,1,49.1,60.51Z"/><path d="M39.54,94.9a10.8,10.8,0,0,1,5.52-4.78,11.25,11.25,0,0,1,7.36-.37,10.8,10.8,0,0,1-5.52,4.78A10.19,10.19,0,0,1,39.54,94.9Z"/><path d="M60.32,117.89c1.66-2.94,3.31-8.83,4.6-13.24,2.94-11.4-18.76-29.43-18.76-29.43S54.07,78,59.4,82c5.15,4,6.62,6.25,7,6.07.92-.37-.37-14.34-3.31-26.85-2.57-11.22-.92-13.79-.92-13.79s1.47,4.23,3.13,9.38,3.49,11.59,5,13.24,1.47,1.1,3.68-3.86A14.13,14.13,0,0,1,80,59.4a128.71,128.71,0,0,0-4.78,13.24C73.93,77.43,74.3,85,75.59,85s5.33-4.78,10.3-8.46,4.41-2.76,4.41-2.76-4.41,5.33-6.44,7.91-4.6,5.7-5.7,9.2-1.29,7.36.55,14.16c1.66,6.44-2.21,13.61-2.21,13.61l17.84,6.62H41.56C41.56,125.06,59.22,119.72,60.32,117.89Z"/></svg>