<svg version="1.1" id="Layer_1" xmlns="http://www.w3.org/2000/svg" viewBox="0 0 128 128">
<g>
	<path clip-path="url(#SVGID_2_)" d="M99.732,70.821c-7.827,0-14.855,3.471-19.643,8.948L51.734,66.04v0.002
		c0.288-1.552,0.445-3.147,0.445-4.781c0-1.587-0.15-3.138-0.422-4.647l28.241-13.487c4.788,5.539,11.856,9.054,19.734,9.054
		c14.388,0,26.09-11.704,26.09-26.09C125.822,11.705,114.12,0,99.732,0C85.348,0,73.644,11.705,73.644,26.091
		c0,1.587,0.15,3.139,0.421,4.648v-0.003L45.822,44.221c-4.788-5.535-11.855-9.05-19.731-9.05C11.705,35.171,0,46.875,0,61.261
		C0,75.647,11.705,87.35,26.091,87.35c7.832,0,14.864-3.475,19.65-8.955c-0.001,0-0.004,0.003-0.006,0.006l28.356,13.728
		c-0.289,1.552-0.447,3.148-0.447,4.783c0,14.386,11.704,26.089,26.089,26.089c14.388,0,26.09-11.703,26.09-26.089
		S114.12,70.821,99.732,70.821 M99.732,13.741c6.812,0,12.35,5.54,12.35,12.35c0,6.811-5.538,12.35-12.35,12.35
		c-6.809,0-12.349-5.539-12.349-12.35C87.384,19.281,92.924,13.741,99.732,13.741 M26.091,73.61c-6.811,0-12.35-5.539-12.35-12.35
		c0-6.81,5.539-12.349,12.35-12.349c6.81,0,12.348,5.539,12.348,12.349C38.439,68.071,32.901,73.61,26.091,73.61 M48.73,74.198
		c-0.002,0.007-0.006,0.014-0.009,0.02C48.724,74.212,48.728,74.205,48.73,74.198 M77.104,83.951
		c-0.004,0.006-0.007,0.013-0.011,0.019C77.098,83.964,77.101,83.957,77.104,83.951 M99.732,109.26
		c-6.809,0-12.349-5.539-12.349-12.349c0-6.811,5.54-12.349,12.349-12.349c6.812,0,12.35,5.538,12.35,12.349
		C112.082,103.721,106.544,109.26,99.732,109.26"/>
</g>
</svg>
