<svg id="Layer_18" data-name="Layer 18" xmlns="http://www.w3.org/2000/svg" viewBox="0 0 128 128"><title>19Artboard 1</title><path d="M51.69,104.52a53,53,0,1,1,65.24-51.59A52.17,52.17,0,0,1,102.61,89l-5.9-5.56a44.81,44.81,0,1,0-43.16,13Z"/><path d="M50.34,77.55a3.88,3.88,0,1,1-3.88-3.88,3.92,3.92,0,0,1,3.88,3.88"/><path d="M85.58,77.55a3.88,3.88,0,1,1-3.88-3.88,3.82,3.82,0,0,1,3.88,3.88"/><path d="M89.46,42.65,86.08,52.94H48.49V42.65ZM42.25,70.47H85.41V65.07H48.32V58.33H90l6.91-21.07H48.49V26.81H37.19V32.2h5.23l-.17,38.27Z"/><path d="M93.17,91l-4.55,1.52-1-2.87a1.45,1.45,0,0,0-1.85-1l-5.23,1.69L80,88.51a1.45,1.45,0,0,0-1.85-1l-5.73,1.85-2.87-9.1a1.45,1.45,0,0,0-1.85-1l-6.41,2a1.45,1.45,0,0,0-1,1.85L66.87,104l-4.38-2.36a1.36,1.36,0,0,0-1.85.51L57.93,106a1.51,1.51,0,0,0,.17,1.85l16.52,14.5,1.52,4.55A1.45,1.45,0,0,0,78,128l19.56-6.24a1.47,1.47,0,0,0,1-1.35l1.18-13.15v-.51L95,92C94.68,91.21,94,90.7,93.17,91Zm3.71,16.35-1,11.8L78.5,124.75,77.32,121c0-.34-.17-.51-.51-.67L61,106.55l1.18-1.69,6.41,3.54a1.55,1.55,0,0,0,1.69-.17,1.36,1.36,0,0,0,.51-1.52L63.49,83.79l3.71-1.18,5.73,17.87,2.7-.84-2.36-7.25L77.66,91l2,6.41,2.7-.84-1-3.2,3.71-1.18,2,6.24,2.7-.84-.67-2,3.2-1Z"/></svg>