<?xml version="1.0" encoding="utf-8"?>
<!-- Generator: Adobe Illustrator 21.0.2, SVG Export Plug-In . SVG Version: 6.00 Build 0)  -->
<svg version="1.1" id="Layer_1" xmlns="http://www.w3.org/2000/svg" xmlns:xlink="http://www.w3.org/1999/xlink" x="0px" y="0px"
	 viewBox="0 0 100 92.9" style="enable-background:new 0 0 100 92.9;" xml:space="preserve">
<style type="text/css">
	.st0{fill:#231F20;}
</style>
<g>
	<rect x="34.7" y="28.4" class="st0" width="14.4" height="14.5"/>
	<rect x="34.7" y="43.6" class="st0" width="14.4" height="14.5"/>
	<rect x="19.2" y="43.6" class="st0" width="14.4" height="14.5"/>
	<rect x="19.2" y="59.7" class="st0" width="14.4" height="14.5"/>
	<rect x="34.7" y="59.7" class="st0" width="14.4" height="14.5"/>
	<rect x="50.2" y="59.7" class="st0" width="14.4" height="14.5"/>
	<rect x="65.8" y="28.4" class="st0" width="14.4" height="14.5"/>
	<path class="st0" d="M80.4,9.9v-10H65.4v10H34.4v-10H19.4v10H0v82.9H100V9.9H80.4z M12.8,80.8V23.8h74.2v57.1H12.8z"/>
	<rect x="65.8" y="43.6" class="st0" width="14.4" height="14.5"/>
	<rect x="65.8" y="59.7" class="st0" width="14.4" height="14.5"/>
	<rect x="50.2" y="28.4" class="st0" width="14.4" height="14.5"/>
	<rect x="50.2" y="43.6" class="st0" width="14.4" height="14.5"/>
</g>
</svg>
